<?xml version="1.0" encoding="UTF-8" standalone="no"?>
<!-- Generator: Adobe Illustrator 27.8.1, SVG Export Plug-In . SVG Version: 6.00 Build 0)  -->

<svg
   version="1.1"
   id="Layer_1"
   x="0px"
   y="0px"
   viewBox="0 0 211.1851 109.34"
   xml:space="preserve"
   sodipodi:docname="logo.svg"
   width="211.1851"
   height="109.34"
   inkscape:version="1.2.2 (b0a84865, 2022-12-01)"
   xmlns:inkscape="http://www.inkscape.org/namespaces/inkscape"
   xmlns:sodipodi="http://sodipodi.sourceforge.net/DTD/sodipodi-0.dtd"
   xmlns="http://www.w3.org/2000/svg"
   xmlns:svg="http://www.w3.org/2000/svg"><defs
   id="defs247" /><sodipodi:namedview
   id="namedview245"
   pagecolor="#ffffff"
   bordercolor="#000000"
   borderopacity="0.25"
   inkscape:showpageshadow="2"
   inkscape:pageopacity="0.0"
   inkscape:pagecheckerboard="0"
   inkscape:deskcolor="#d1d1d1"
   showgrid="false"
   inkscape:zoom="0.65555556"
   inkscape:cx="-64.830508"
   inkscape:cy="56.440678"
   inkscape:window-width="1309"
   inkscape:window-height="456"
   inkscape:window-x="0"
   inkscape:window-y="38"
   inkscape:window-maximized="0"
   inkscape:current-layer="Layer_1" />
<style
   type="text/css"
   id="style182">
	.st0{fill:#603913;}
	.st1{fill:#8CD2CC;}
	.st2{fill:#AA8E75;}
	.st3{fill:#836D57;}
	.st4{fill:#6D573D;}
	.st5{fill:#49371F;}
	.st6{fill:none;stroke:#FFFFFF;stroke-width:3;stroke-miterlimit:10;}
	.st7{fill:#006838;}
</style>
<path
   class="st0"
   d="M 157.35342,40.440001"
   id="path184" />
<path
   class="st0"
   d="M 151.50342,43.840001"
   id="path186" />
<circle
   class="st1"
   cx="54.703411"
   cy="54.669998"
   r="54.669998"
   id="circle188" />
<polygon
   class="st2"
   points="112.41,194.74 133.61,195.42 111.97,205.74 83.37,197.03 81.47,187.01 86.83,187.01 110.21,192.4 "
   id="polygon190"
   transform="translate(-64.816584,-123.03)" />
<path
   class="st3"
   d="m 28.093416,80.950001 c 12.32,-2.93 24.64,-5.87 36.96,-8.8 3.57,-3.47 7.14,-6.94 10.71,-10.41 3.91,0.1 7.82,0.2 11.73,0.29 0.83,-2 1.66,-4.01 2.49,-6.01 2.88,-0.34 5.77,-0.68 8.65,-1.03 1.17,-2.15 2.350004,-4.3 3.520004,-6.45 2.22,-0.53 4.44,-1.05 6.67,-1.58 1.9,12.21 -0.61,20.02 -3.39,24.96 0,0 -5.01,8.92 -39.720004,25.9 v 0 c -12.54,-5.62 -25.08,-11.24 -37.62,-16.87 z"
   id="path192" />
<path
   class="st4"
   d="m 46.423416,78.770001 24.86,-1.88 8.51,-8.99 h 18.48 l 7.920004,-7.04 2.97,-1.53 c 0,0 0,13.99 -10.070004,27.23 l -36.91,14.119999 z"
   id="path194" />
<path
   class="st5"
   d="m 0.97341596,44.560001 c 6.55000004,4.02 13.09000004,8.03 19.64000004,12.05 l 2.2,11.59 18.92,7.19 v 2.49 l 30.75,5.87 1.66,5.87 c 8.32,-1.02 16.64,-2.03 24.95,-3.05 -2.16,3.01 -5.3,6.73 -9.67,10.32 -5.78,4.759999 -11.47,7.449999 -15.53,8.979999 -2.75,1.05 -6.1,2.06 -9.99,2.69 -7.2,1.18 -13.37,0.61 -17.67,-0.17 0,0 -13.86,-1.21 -24.64,-10.119999 0,0 -9.24,-6.27 -14.74,-16.83 -3.89,-7.41 -7.64000004,-17.79 -6.71000004,-29.89 0.1,-1.35 0.26,-2.67 0.46,-3.94 0.13,-1.03 0.25,-2.04 0.37,-3.05 z"
   id="path196" />
<path
   class="st6"
   d="m 33.493416,75.240001 c 0.67,-5.33 7.77,-8.29 12.8,-10.38 3.25,-1.35 6.04,-2.03 7.76,-2.38 0,0 18.92,-2.93 23.32,10.71 0,0 3.67,9.83 -9.97,12.03 -7.28,0.18 -14.57,0.35 -21.85,0.53 -0.49,0.02 -7,0.21 -10.37,-4.82 -0.55,-0.82 -2.03,-3 -1.69,-5.69 z"
   id="path198" />
<path
   class="st6"
   d="m 46.293416,64.860001 c 0,0 -8.23,0.26 -7.06,-3.7 0.29,-0.9 0.83,-2.23 1.89,-3.54 1.75,-2.18 3.86,-3.02 6.62,-4.09 3.06,-1.18 5.66,-2.19 9.26,-1.95 2.98,0.2 5.08,1.14 6.88,1.95 3.26,1.47 6.35,2.86 6.4,4.97 0.07,2.53 -4.26,4.43 -4.61,4.57 0,-0.01 -12.2,-2.72 -19.38,1.79 z"
   id="path200" />
<path
   class="st6"
   d="m 45.003416,54.670001 -9.28,-0.99 c 0,0 -4.11,-0.88 0,-3.52 l 10.89,-4.55 16.83,-7.04 c 0,0 9.83,-4.43 7.48,8.05 0,0 -1.82,8.83 -8.54,6.26 0,-0.01 -7.66,-3.09 -17.38,1.79 z"
   id="path202" />
<path
   class="st6"
   d="m 63.443416,38.560001 c 0,0 -1.76,-8.65 -7.19,-7.48 0,0 -7.63,-0.99 -11,3.69 0,0 -3.37,3.5 -2.05,8.49 0,0 0.42,3.59 6.47,1.06 z"
   id="path204" />
<ellipse
   class="st6"
   cx="52.583416"
   cy="25.309998"
   rx="6.1599998"
   ry="4.77"
   id="ellipse206" />
<g
   id="g242"
   transform="translate(-64.816584,-123.03)">
	<path
   class="st7"
   d="m 186.37,166.07 v 6.46 h -3.5 V 157 h 3.5 v 6.01 l 4.24,-5.89 h 4.12 l -5.34,7.28 5.63,8.12 h -4.26 z"
   id="path208" />
	<path
   class="st7"
   d="m 194.76,166.96 c 0,-3.44 2.66,-5.89 5.97,-5.89 3.31,0 5.97,2.45 5.97,5.89 0,3.44 -2.66,5.89 -5.97,5.89 -3.31,0 -5.97,-2.45 -5.97,-5.89 z m 5.97,2.78 c 1.5,0 2.64,-1.12 2.64,-2.79 0,-1.67 -1.14,-2.79 -2.64,-2.79 -1.5,0 -2.64,1.12 -2.64,2.79 0,1.67 1.14,2.79 2.64,2.79 z"
   id="path210" />
	<path
   class="st7"
   d="m 212.91,161.07 c 1.5,0 2.66,0.55 3.33,1.41 0.65,-0.87 1.82,-1.41 3.31,-1.41 2.79,0 4.52,1.79 4.52,4.92 v 6.54 h -3.33 v -6.67 c 0,-1.08 -0.57,-1.69 -1.41,-1.69 -0.87,0 -1.41,0.61 -1.41,1.69 v 6.67 h -3.33 v -6.67 c 0,-1.08 -0.55,-1.69 -1.41,-1.69 -0.84,0 -1.41,0.61 -1.41,1.69 v 6.67 h -3.33 v -6.54 c -0.03,-3.13 1.7,-4.92 4.47,-4.92 z"
   id="path212" />
	<path
   class="st7"
   d="m 226.27,161.35 h 2.95 l 0.02,1.01 c 0.76,-0.8 1.98,-1.22 3.23,-1.22 3.02,0 5.57,2.36 5.57,5.8 0,3.44 -2.55,5.8 -5.57,5.8 -1.1,0 -2.17,-0.32 -2.93,-0.95 0.04,0.93 0.06,1.94 0.06,2.87 v 2.09 h -3.33 z m 5.76,8.35 c 1.54,0 2.68,-1.08 2.68,-2.76 0,-1.69 -1.14,-2.76 -2.68,-2.76 -1.52,0 -2.64,1.08 -2.64,2.76 0,1.69 1.12,2.76 2.64,2.76 z"
   id="path214" />
	<path
   class="st7"
   d="m 239.89,156.22 h 3.33 v 16.31 h -3.33 z"
   id="path216" />
	<path
   class="st7"
   d="m 245.06,166.98 c 0,-3.52 2.53,-5.91 5.78,-5.91 3.06,0 5.87,2.09 5.4,6.77 h -8.04 c 0.32,1.33 1.39,2.13 2.87,2.13 1.18,0 2.2,-0.51 3.02,-1.54 l 2.15,1.79 c -1.25,1.65 -3.02,2.57 -5.23,2.57 -3.57,0.01 -5.95,-2.39 -5.95,-5.81 z m 8.1,-1.44 c -0.25,-1.14 -1.1,-1.77 -2.34,-1.77 -1.27,0 -2.22,0.7 -2.57,1.77 z"
   id="path218" />
	<path
   class="st7"
   d="m 258.93,164.34 h -1.33 v -3 h 1.33 v -2.87 l 3.33,-1.08 v 3.95 h 1.35 v 3 h -1.35 l -0.02,8.19 h -3.33 z"
   id="path220" />
	<path
   class="st7"
   d="m 264.77,166.98 c 0,-3.52 2.53,-5.91 5.78,-5.91 3.06,0 5.87,2.09 5.4,6.77 h -8.04 c 0.32,1.33 1.39,2.13 2.87,2.13 1.18,0 2.2,-0.51 3.02,-1.54 l 2.15,1.79 c -1.25,1.65 -3.02,2.57 -5.23,2.57 -3.56,0.01 -5.95,-2.39 -5.95,-5.81 z m 8.11,-1.44 c -0.25,-1.14 -1.1,-1.77 -2.34,-1.77 -1.27,0 -2.22,0.7 -2.57,1.77 z"
   id="path222" />
	<path
   class="st7"
   d="m 182.87,182.33 h 3.17 l 5.91,9.22 v -9.22 h 3.29 v 15.53 h -3.17 l -5.91,-9.2 v 9.2 h -3.29 z"
   id="path224" />
	<path
   class="st7"
   d="m 202.56,198.13 c -3.04,0 -4.9,-1.86 -4.9,-4.85 v -6.61 H 201 v 6.48 c 0,1.2 0.57,1.88 1.56,1.88 0.99,0 1.56,-0.67 1.56,-1.88 v -6.48 h 3.33 v 6.61 c 0.01,3 -1.85,4.85 -4.89,4.85 z"
   id="path226" />
	<path
   class="st7"
   d="m 210.52,189.67 h -1.33 v -3 h 1.33 v -2.87 l 3.33,-1.08 v 3.95 h 1.35 v 3 h -1.35 l -0.02,8.19 h -3.33 z"
   id="path228" />
	<path
   class="st7"
   d="m 220.87,186.68 h 1.43 v 3 h -1.12 c -0.68,0 -0.97,0.29 -0.97,0.97 v 7.22 h -3.33 v -7.13 c 0,-2.82 1.5,-4.06 3.99,-4.06 z"
   id="path230" />
	<path
   class="st7"
   d="m 223.93,181.55 h 3.33 v 3.42 h -3.33 z m 0,5.13 h 3.33 v 11.18 h -3.33 z"
   id="path232" />
	<path
   class="st7"
   d="m 230.45,189.67 h -1.33 v -3 h 1.33 v -2.87 l 3.33,-1.08 v 3.95 h 1.35 v 3 h -1.35 l -0.02,8.19 h -3.33 z"
   id="path234" />
	<path
   class="st7"
   d="m 237,181.55 h 3.33 v 3.42 H 237 Z m 0,5.13 h 3.33 v 11.18 H 237 Z"
   id="path236" />
	<path
   class="st7"
   d="m 242.17,192.29 c 0,-3.44 2.66,-5.89 5.97,-5.89 3.31,0 5.97,2.45 5.97,5.89 0,3.44 -2.66,5.89 -5.97,5.89 -3.31,0 -5.97,-2.45 -5.97,-5.89 z m 5.97,2.79 c 1.5,0 2.64,-1.12 2.64,-2.79 0,-1.67 -1.14,-2.79 -2.64,-2.79 -1.5,0 -2.64,1.12 -2.64,2.79 0,1.67 1.14,2.79 2.64,2.79 z"
   id="path238" />
	<path
   class="st7"
   d="m 260.72,186.4 c 3.04,0 4.9,1.86 4.9,4.85 v 6.61 h -3.33 v -6.48 c 0,-1.2 -0.57,-1.88 -1.56,-1.88 -0.99,0 -1.56,0.67 -1.56,1.88 v 6.48 h -3.33 v -6.61 c -0.02,-2.99 1.84,-4.85 4.88,-4.85 z"
   id="path240" />
</g>
</svg>
